<svg width="16" height="14" viewBox="0 0 16 14" fill="none" xmlns="http://www.w3.org/2000/svg">
<path d="M15.1911 12.6252V4.18945C15.1319 4.19439 15.0728 4.19767 15.0136 4.19767H0.986427C0.927241 4.19767 0.866411 4.19439 0.808868 4.18945V12.6252C0.808868 13.1693 1.25112 13.6116 1.79531 13.6116H14.2047C14.7489 13.6116 15.1911 13.171 15.1911 12.6252ZM11.2947 7.43978C11.2947 7.71269 11.0744 7.933 10.8015 7.933H5.19852C4.9256 7.933 4.7053 7.71269 4.7053 7.43978V6.13111C4.7053 5.85818 4.9256 5.63789 5.19852 5.63789H10.7998C11.0728 5.63789 11.2931 5.85818 11.2931 6.13111V7.43978H11.2947Z" fill="#B5C6FF"/>
<path d="M16 2.22485V1.37487C16 0.830681 15.5578 0.388428 15.0136 0.388428H0.986438C0.442253 0.388428 0 0.830681 0 1.37487V2.22485C0 2.7082 0.348541 3.111 0.808879 3.19484C0.866421 3.20471 0.925607 3.21128 0.986438 3.21128H15.0119C15.0728 3.21128 15.132 3.20471 15.1895 3.19484C15.6515 3.111 16 2.7082 16 2.22485Z" fill="#B5C6FF"/>
</svg>
