<svg width="16" height="16" viewBox="0 0 16 16" fill="none" xmlns="http://www.w3.org/2000/svg">
<path d="M0.468053 12.2186H12.7186C12.8285 12.2186 12.9347 12.1801 13.0189 12.1101C13.1365 12.0115 15.8206 9.70254 15.9843 4.71826H2.82747C2.66443 9.24264 0.19251 11.3692 0.166821 11.3905C0.0162208 11.5177 -0.0391879 11.7256 0.0285651 11.9105C0.0958493 12.095 0.271201 12.2186 0.468053 12.2186Z" fill="#FF7F57"/>
<path d="M15.5312 1.90605H13.1874V1.43728C13.1874 1.17477 12.9811 0.968506 12.7186 0.968506C12.4561 0.968506 12.2498 1.17477 12.2498 1.43728V1.90605H9.87471V1.43728C9.87471 1.17477 9.66845 0.968506 9.40594 0.968506C9.14342 0.968506 8.93716 1.17477 8.93716 1.43728V1.90605H6.59331V1.43728C6.59331 1.17477 6.38705 0.968506 6.12454 0.968506C5.86203 0.968506 5.65577 1.17477 5.65577 1.43728V1.90605H3.31191C3.0494 1.90605 2.84314 2.11231 2.84314 2.37482V3.78113H16V2.37482C16 2.11231 15.7937 1.90605 15.5312 1.90605Z" fill="#FF7F57"/>
<path d="M13.6209 12.829C13.3663 13.041 13.0468 13.1564 12.7186 13.1564H2.84314V14.5627C2.84314 14.8218 3.05281 15.0314 3.31191 15.0314H15.5312C15.7903 15.0314 16 14.8218 16 14.5627V9.30786C15.0962 11.5252 13.835 12.6498 13.6209 12.829Z" fill="#FF7F57"/>
</svg>
