<svg width="12" height="12" viewBox="0 0 12 12" fill="none" xmlns="http://www.w3.org/2000/svg">
<path fill-rule="evenodd" clip-rule="evenodd" d="M6 0C2.68629 0 0 2.68629 0 6C0 9.31371 2.68629 12 6 12C9.31371 12 12 9.31371 12 6C12 2.68629 9.31371 0 6 0ZM4.66584 8.56815C4.75803 8.66033 4.88459 8.7119 5.01428 8.7119H5.02834C5.16271 8.70721 5.29084 8.64783 5.38146 8.54627L9.32209 4.11033C9.74709 3.63533 9.01115 2.97908 8.58615 3.45565L4.9924 7.50096L3.3924 5.8994C2.9799 5.46971 2.23459 6.11346 2.69553 6.59627L4.66584 8.56815Z" fill="white"/>
</svg>
