<svg width="16" height="14" viewBox="0 0 16 14" fill="none" xmlns="http://www.w3.org/2000/svg">
<path fill-rule="evenodd" clip-rule="evenodd" d="M8.94118 2.10897H14.7153C15.4251 2.11415 15.9983 2.69011 16 3.39995V10.36C15.9995 11.0116 15.514 11.5609 14.8675 11.6415V5.07211C14.8657 4.05231 14.0394 3.22599 13.0196 3.22427H7.50589L6.5255 2.05878C6.38232 1.88827 6.17091 1.78999 5.94824 1.79054H1.70197C1.78965 1.15137 2.33522 0.674738 2.9804 0.673679H7.63608C7.69644 0.671797 7.75432 0.697836 7.79295 0.744268L8.94118 2.10897ZM7.24706 3.78109H13.0196C13.7331 3.78196 14.3113 4.36015 14.3122 5.07364V12.0336C14.3113 12.7471 13.7331 13.3253 13.0196 13.3262H1.29255C0.579059 13.3253 0.000862745 12.7471 0 12.0336V3.63992C0 2.92886 0.573647 2.35098 1.28471 2.3458H5.94196C6.00231 2.34392 6.0602 2.36996 6.09882 2.41639L7.24706 3.78109Z" fill="#FF7F57"/>
</svg>
