<svg width="16" height="16" viewBox="0 0 16 16" fill="none" xmlns="http://www.w3.org/2000/svg">
<path d="M0.314777 7.44095L2.88425 6.15628L0.314777 4.87148C-0.144819 4.64174 -0.145308 3.98354 0.314777 3.75343L7.68981 0.0659183C7.86584 -0.0219728 8.07287 -0.0219728 8.2489 0.0659183L15.6239 3.75343C16.0835 3.98329 16.084 4.6415 15.6239 4.87148L13.0545 6.15628L15.6239 7.44095C16.0835 7.67081 16.084 8.32889 15.6239 8.559L13.0545 9.84379L15.6239 11.1285C16.0835 11.3583 16.084 12.0164 15.6239 12.2465L8.2489 15.934C8.07324 16.0218 7.8662 16.0222 7.68981 15.934L0.314777 12.2465C-0.144819 12.0167 -0.145308 11.3586 0.314777 11.1285L2.88425 9.84379L0.314777 8.559C-0.144819 8.32926 -0.145308 7.67105 0.314777 7.44095ZM7.96935 1.32374L1.99191 4.31252L7.96935 7.30118L13.9468 4.31252L7.96935 1.32374ZM1.99191 11.6876L7.96935 14.6762L13.9468 11.6876L11.6569 10.5425L8.2489 12.2465C8.07311 12.3343 7.8662 12.3346 7.68981 12.2465L4.28184 10.5425L1.99191 11.6876ZM7.96935 10.9887L13.9468 8.00004L11.6569 6.85501L8.2489 8.559C8.07311 8.64677 7.8662 8.64713 7.68981 8.559L4.28184 6.85501L1.99191 8.00004L7.96935 10.9887Z" fill="#DADADA"/>
</svg>
