<svg width="172" height="37" viewBox="0 0 172 37" fill="none" xmlns="http://www.w3.org/2000/svg">
<path fill-rule="evenodd" clip-rule="evenodd" d="M16.2064 0.472168H0.986542V36.9999H16.2064C21.0691 36.9999 23.5005 34.8749 23.5005 30.6248V6.78986C23.5005 2.57806 21.0691 0.472168 16.2064 0.472168ZM15.2875 7.53649V29.9356C15.2875 30.8928 14.7706 31.3714 13.7368 31.3714H9.19954V6.10065H13.7368C14.7706 6.10065 15.2875 6.57926 15.2875 7.53649ZM28.46 36.9999H35.6966V12.5332L40.4061 29.0741H46.4941L51.2036 12.4758V36.9999H58.4403V0.472168H49.4806L43.4501 21.1482L37.4196 0.472168H28.46V36.9999ZM63.6268 0.472168H78.6744C83.4988 0.472168 85.911 2.57806 85.911 6.78986V17.8745C85.911 22.1246 83.4988 24.2496 78.6744 24.2496H71.7823V36.9999H63.6268V0.472168ZM77.698 16.7833V7.93852C77.698 6.9813 77.2002 6.50269 76.2047 6.50269H71.7823V18.2191H76.2047C77.2002 18.2191 77.698 17.7405 77.698 16.7833ZM118.75 30.9694H108.239V0.472168H100.084V36.9999H118.75V30.9694ZM132.631 9.15121L132.599 9.01L132.537 9.27816L132.596 8.97233L132.631 9.15121ZM138.039 36.9281L138.053 36.9999H146.323L137.823 0.472168H127.37L119.099 36.9999H127.198L127.211 36.9281H129.133C128.643 36.2175 128.379 35.376 128.379 34.4941L128.379 21.1744H128.187C127.647 21.1744 127.21 20.738 127.21 20.1979C127.21 19.6579 127.647 19.2214 128.187 19.2214H137.165C137.705 19.2214 138.141 19.6579 138.14 20.1972C138.14 20.7373 137.704 21.1737 137.164 21.1737L136.972 21.1737V34.4941C136.972 35.376 136.708 36.2175 136.218 36.9281H138.039ZM163.518 7.53649V14.3711C163.518 15.3283 163.002 15.8069 161.968 15.8069H157.258V6.10065H161.968C163.002 6.10065 163.518 6.57926 163.518 7.53649ZM163.518 22.8138V29.9356C163.518 30.8928 163.002 31.3714 161.968 31.3714H157.258V21.4354H161.968C162.542 21.4354 162.944 21.5503 163.174 21.78C163.404 21.9714 163.518 22.3161 163.518 22.8138ZM164.323 0.472168H149.16V36.9999H164.323C169.185 36.9999 171.617 34.8749 171.617 30.6248V23.503C171.617 20.8611 170.755 19.2146 169.032 18.5637C170.755 17.8362 171.617 16.0558 171.617 13.2224V6.78986C171.617 2.57806 169.185 0.472168 164.323 0.472168ZM134.854 17.8879C134.093 18.6496 132.854 18.6496 132.092 17.8879C131.33 17.1261 131.33 15.8872 132.092 15.1255C132.854 14.3637 134.093 14.3637 134.854 15.1255C135.616 15.8872 135.616 17.1261 134.854 17.8879ZM130.732 13.7468C131.304 14.3189 131.304 15.2465 130.732 15.8186C130.16 16.3907 129.232 16.3907 128.66 15.8186C128.088 15.2465 128.088 14.3189 128.66 13.7468C129.232 13.1747 130.16 13.1747 130.732 13.7468ZM131.985 35.7365C131.604 35.3553 131.604 34.7365 131.985 34.3553C132.366 33.9741 132.985 33.9741 133.366 34.3553C133.747 34.7365 133.747 35.3553 133.366 35.7365C132.985 36.1177 132.366 36.1177 131.985 35.7365ZM134.057 30.9023C133.676 31.2835 133.057 31.2835 132.676 30.9023C132.294 30.5211 132.294 29.9023 132.676 29.5211C133.057 29.1399 133.676 29.1399 134.057 29.5211C134.438 29.9023 134.438 30.5211 134.057 30.9023ZM135.019 24.9955C134.828 25.3574 134.492 25.6523 134.109 25.7628L133.259 25.9997C132.301 26.2766 131.504 27.075 131.223 28.0397L130.991 28.8761C130.89 29.2248 130.64 29.537 130.332 29.7352V25.4949H130.776C131.325 25.4804 131.743 25.0632 131.757 24.5142C131.757 23.9755 131.315 23.5335 130.776 23.5335H130.332V21.1744H135.018L135.019 24.9955Z" fill="white"/>
</svg>
