<svg width="16" height="16" viewBox="0 0 16 16" fill="none" xmlns="http://www.w3.org/2000/svg">
<path d="M5.66663 0H2.33331C1.78197 0 1.33331 0.448656 1.33331 1V15C1.33331 15.5513 1.78197 16 2.33331 16H5.66666C6.21801 16 6.66666 15.5513 6.66666 15V1C6.66663 0.448656 6.21798 0 5.66663 0Z" fill="#FF7F57"/>
<path d="M13.6666 0H10.3333C9.78197 0 9.33331 0.448656 9.33331 1V15C9.33331 15.5513 9.78197 16 10.3333 16H13.6667C14.218 16 14.6667 15.5513 14.6667 15V1C14.6666 0.448656 14.218 0 13.6666 0Z" fill="#FF7F57"/>
</svg>
