<svg width="10" height="12" viewBox="0 0 10 12" fill="none" xmlns="http://www.w3.org/2000/svg">
<path opacity="0.6" d="M1.82445 10.16H0.288452V8.46405H1.82445V7.39205H0.288452V5.69605H1.82445V0.800049H5.74445C6.98179 0.800049 7.93112 1.10405 8.59245 1.71205C9.25379 2.30938 9.58445 3.10405 9.58445 4.09605C9.58445 5.08805 9.25379 5.88805 8.59245 6.49605C7.93112 7.09338 6.98179 7.39205 5.74445 7.39205H3.82445V8.46405H7.40845V10.16H3.82445V12H1.82445V10.16ZM5.64845 5.69605C6.93912 5.69605 7.58445 5.16272 7.58445 4.09605C7.58445 3.02938 6.93912 2.49605 5.64845 2.49605H3.82445V5.69605H5.64845Z" fill="white"/>
</svg>
