<svg width="16" height="16" viewBox="0 0 16 16" fill="none" xmlns="http://www.w3.org/2000/svg">
<path d="M8 0C4.62683 0 1.88232 2.74451 1.88232 6.11768V11.7646C1.88232 12.5432 2.51562 13.1765 3.29407 13.1765C4.07263 13.1765 4.70593 12.5432 4.70593 11.7646V7.05884C4.70593 6.2804 4.07263 5.64709 3.29407 5.64709C3.13562 5.64709 2.98572 5.6792 2.84326 5.72754C3.04407 3.0553 5.27771 0.941162 8 0.941162C10.7208 0.941162 12.9539 3.05334 13.1565 5.72375C13.0149 5.67529 12.8641 5.64709 12.7059 5.64709C11.9274 5.64709 11.2941 6.2804 11.2941 7.05884V11.7646C11.2941 12.5432 11.9274 13.1765 12.7059 13.1765C12.8717 13.1765 13.0286 13.1426 13.1765 13.0898V13.6471C13.1765 13.9067 12.9651 14.1177 12.7059 14.1177H9.32507C9.13013 13.571 8.61267 13.1765 8 13.1765C7.22156 13.1765 6.58826 13.8098 6.58826 14.5883C6.58826 15.3667 7.22156 16 8 16C8.61267 16 9.13013 15.6053 9.32507 15.0588H12.7059C13.4844 15.0588 14.1177 14.4255 14.1177 13.6471C14.1177 10.8165 14.1177 8.95129 14.1177 6.11768C14.1177 2.74451 11.3732 0 8 0V0Z" fill="#FF7F57"/>
<path d="M15.0588 6.6748V12.1484C15.6053 11.9536 16 11.4362 16 10.8234V7.99988C16 7.38721 15.6053 6.86975 15.0588 6.6748Z" fill="#FF7F57"/>
<path d="M0 7.99988V10.8234C0 11.4362 0.394653 11.9536 0.941162 12.1484V6.6748C0.394653 6.86975 0 7.38721 0 7.99988Z" fill="#FF7F57"/>
</svg>
