<svg width="16" height="16" viewBox="0 0 16 16" fill="none" xmlns="http://www.w3.org/2000/svg">
<path d="M8.00111 0C5.71538 0 3.84691 1.86847 3.84691 4.1542C3.84691 6.43993 5.71538 8.3084 8.00111 8.3084C10.2868 8.3084 12.1553 6.43993 12.1553 4.1542C12.1553 1.86847 10.2868 0 8.00111 0Z" fill="#B5C6FF"/>
<path d="M15.1304 11.628C15.0215 11.3559 14.8764 11.1019 14.7132 10.8661C13.8787 9.63253 12.5907 8.81621 11.1395 8.61667C10.9581 8.59854 10.7585 8.63479 10.6134 8.74364C9.85149 9.306 8.94448 9.59625 8.00114 9.59625C7.05781 9.59625 6.1508 9.306 5.38889 8.74364C5.24375 8.63479 5.0442 8.58038 4.86281 8.61667C3.41156 8.81621 2.10545 9.63253 1.28913 10.8661C1.12587 11.1019 0.980727 11.3741 0.871907 11.628C0.817497 11.7369 0.835622 11.8638 0.890032 11.9727C1.03517 12.2267 1.21656 12.4807 1.37982 12.6983C1.63378 13.043 1.9059 13.3514 2.2143 13.6416C2.46826 13.8956 2.7585 14.1314 3.04878 14.3672C4.48187 15.4376 6.20524 15.9999 7.98302 15.9999C9.7608 15.9999 11.4842 15.4375 12.9173 14.3672C13.2075 14.1496 13.4977 13.8956 13.7517 13.6416C14.042 13.3514 14.3322 13.043 14.5862 12.6983C14.7676 12.4625 14.9309 12.2267 15.076 11.9727C15.1667 11.8638 15.1848 11.7368 15.1304 11.628Z" fill="#B5C6FF"/>
</svg>
